<?xml version="1.0" encoding="utf-8" standalone="no"?>
<!DOCTYPE svg PUBLIC "-//W3C//DTD SVG 1.1//EN"
  "http://www.w3.org/Graphics/SVG/1.1/DTD/svg11.dtd">
<svg xmlns:xlink="http://www.w3.org/1999/xlink" width="642.914375pt" height="530.335625pt" viewBox="0 0 642.914375 530.335625" xmlns="http://www.w3.org/2000/svg" version="1.1">
 <metadata>
  <rdf:RDF xmlns:dc="http://purl.org/dc/elements/1.1/" xmlns:cc="http://creativecommons.org/ns#" xmlns:rdf="http://www.w3.org/1999/02/22-rdf-syntax-ns#">
   <cc:Work>
    <dc:type rdf:resource="http://purl.org/dc/dcmitype/StillImage"/>
    <dc:date>2023-09-11T15:48:19.597579</dc:date>
    <dc:format>image/svg+xml</dc:format>
    <dc:creator>
     <cc:Agent>
      <dc:title>Matplotlib v3.5.1, https://matplotlib.org/</dc:title>
     </cc:Agent>
    </dc:creator>
   </cc:Work>
  </rdf:RDF>
 </metadata>
 <defs>
  <style type="text/css">*{stroke-linejoin: round; stroke-linecap: butt}</style>
 </defs>
 <g id="figure_1">
  <g id="patch_1">
   <path d="M 0 530.335625 
L 642.914375 530.335625 
L 642.914375 0 
L 0 0 
z
" style="fill: #ffffff"/>
  </g>
  <g id="axes_1">
   <g id="patch_2">
    <path d="M 77.714375 466.31625 
L 635.714375 466.31625 
L 635.714375 31.43625 
L 77.714375 31.43625 
z
" style="fill: #ffffff"/>
   </g>
   <g id="patch_3">
    <path d="M 96.314375 298.677028 
L 245.114375 298.677028 
L 245.114375 247.907728 
L 96.314375 247.907728 
L 96.314375 298.677028 
z
" clip-path="url(#p042f0ec189)" style="fill: #176d9c; stroke: #303030; stroke-width: 2.5; stroke-linejoin: miter"/>
   </g>
   <g id="patch_4">
    <path d="M 282.314375 347.686995 
L 431.114375 347.686995 
L 431.114375 301.441692 
L 282.314375 301.441692 
L 282.314375 347.686995 
z
" clip-path="url(#p042f0ec189)" style="fill: #c38820; stroke: #303030; stroke-width: 2.5; stroke-linejoin: miter"/>
   </g>
   <g id="patch_5">
    <path d="M 468.314375 379.337022 
L 617.114375 379.337022 
L 617.114375 343.686609 
L 468.314375 343.686609 
L 468.314375 379.337022 
z
" clip-path="url(#p042f0ec189)" style="fill: #158b6a; stroke: #303030; stroke-width: 2.5; stroke-linejoin: miter"/>
   </g>
   <g id="matplotlib.axis_1">
    <g id="xtick_1">
     <g id="line2d_1">
      <defs>
       <path id="m31243a07c9" d="M 0 0 
L 0 4.8 
" style="stroke: #000000"/>
      </defs>
      <g>
       <use xlink:href="#m31243a07c9" x="170.714375" y="466.31625" style="stroke: #000000"/>
      </g>
     </g>
     <g id="text_1">
      <!-- WBT160 -->
      <g transform="translate(124.57625 491.332812)scale(0.22 -0.22)">
       <defs>
        <path id="DejaVuSans-57" d="M 213 4666 
L 850 4666 
L 1831 722 
L 2809 4666 
L 3519 4666 
L 4500 722 
L 5478 4666 
L 6119 4666 
L 4947 0 
L 4153 0 
L 3169 4050 
L 2175 0 
L 1381 0 
L 213 4666 
z
" transform="scale(0.015625)"/>
        <path id="DejaVuSans-42" d="M 1259 2228 
L 1259 519 
L 2272 519 
Q 2781 519 3026 730 
Q 3272 941 3272 1375 
Q 3272 1813 3026 2020 
Q 2781 2228 2272 2228 
L 1259 2228 
z
M 1259 4147 
L 1259 2741 
L 2194 2741 
Q 2656 2741 2882 2914 
Q 3109 3088 3109 3444 
Q 3109 3797 2882 3972 
Q 2656 4147 2194 4147 
L 1259 4147 
z
M 628 4666 
L 2241 4666 
Q 2963 4666 3353 4366 
Q 3744 4066 3744 3513 
Q 3744 3084 3544 2831 
Q 3344 2578 2956 2516 
Q 3422 2416 3680 2098 
Q 3938 1781 3938 1306 
Q 3938 681 3513 340 
Q 3088 0 2303 0 
L 628 0 
L 628 4666 
z
" transform="scale(0.015625)"/>
        <path id="DejaVuSans-54" d="M -19 4666 
L 3928 4666 
L 3928 4134 
L 2272 4134 
L 2272 0 
L 1638 0 
L 1638 4134 
L -19 4134 
L -19 4666 
z
" transform="scale(0.015625)"/>
        <path id="DejaVuSans-31" d="M 794 531 
L 1825 531 
L 1825 4091 
L 703 3866 
L 703 4441 
L 1819 4666 
L 2450 4666 
L 2450 531 
L 3481 531 
L 3481 0 
L 794 0 
L 794 531 
z
" transform="scale(0.015625)"/>
        <path id="DejaVuSans-36" d="M 2113 2584 
Q 1688 2584 1439 2293 
Q 1191 2003 1191 1497 
Q 1191 994 1439 701 
Q 1688 409 2113 409 
Q 2538 409 2786 701 
Q 3034 994 3034 1497 
Q 3034 2003 2786 2293 
Q 2538 2584 2113 2584 
z
M 3366 4563 
L 3366 3988 
Q 3128 4100 2886 4159 
Q 2644 4219 2406 4219 
Q 1781 4219 1451 3797 
Q 1122 3375 1075 2522 
Q 1259 2794 1537 2939 
Q 1816 3084 2150 3084 
Q 2853 3084 3261 2657 
Q 3669 2231 3669 1497 
Q 3669 778 3244 343 
Q 2819 -91 2113 -91 
Q 1303 -91 875 529 
Q 447 1150 447 2328 
Q 447 3434 972 4092 
Q 1497 4750 2381 4750 
Q 2619 4750 2861 4703 
Q 3103 4656 3366 4563 
z
" transform="scale(0.015625)"/>
        <path id="DejaVuSans-30" d="M 2034 4250 
Q 1547 4250 1301 3770 
Q 1056 3291 1056 2328 
Q 1056 1369 1301 889 
Q 1547 409 2034 409 
Q 2525 409 2770 889 
Q 3016 1369 3016 2328 
Q 3016 3291 2770 3770 
Q 2525 4250 2034 4250 
z
M 2034 4750 
Q 2819 4750 3233 4129 
Q 3647 3509 3647 2328 
Q 3647 1150 3233 529 
Q 2819 -91 2034 -91 
Q 1250 -91 836 529 
Q 422 1150 422 2328 
Q 422 3509 836 4129 
Q 1250 4750 2034 4750 
z
" transform="scale(0.015625)"/>
       </defs>
       <use xlink:href="#DejaVuSans-57"/>
       <use xlink:href="#DejaVuSans-42" x="98.876953"/>
       <use xlink:href="#DejaVuSans-54" x="167.480469"/>
       <use xlink:href="#DejaVuSans-31" x="228.564453"/>
       <use xlink:href="#DejaVuSans-36" x="292.1875"/>
       <use xlink:href="#DejaVuSans-30" x="355.810547"/>
      </g>
     </g>
    </g>
    <g id="xtick_2">
     <g id="line2d_2">
      <g>
       <use xlink:href="#m31243a07c9" x="356.714375" y="466.31625" style="stroke: #000000"/>
      </g>
     </g>
     <g id="text_2">
      <!-- WBT182 -->
      <g transform="translate(310.57625 491.332812)scale(0.22 -0.22)">
       <defs>
        <path id="DejaVuSans-38" d="M 2034 2216 
Q 1584 2216 1326 1975 
Q 1069 1734 1069 1313 
Q 1069 891 1326 650 
Q 1584 409 2034 409 
Q 2484 409 2743 651 
Q 3003 894 3003 1313 
Q 3003 1734 2745 1975 
Q 2488 2216 2034 2216 
z
M 1403 2484 
Q 997 2584 770 2862 
Q 544 3141 544 3541 
Q 544 4100 942 4425 
Q 1341 4750 2034 4750 
Q 2731 4750 3128 4425 
Q 3525 4100 3525 3541 
Q 3525 3141 3298 2862 
Q 3072 2584 2669 2484 
Q 3125 2378 3379 2068 
Q 3634 1759 3634 1313 
Q 3634 634 3220 271 
Q 2806 -91 2034 -91 
Q 1263 -91 848 271 
Q 434 634 434 1313 
Q 434 1759 690 2068 
Q 947 2378 1403 2484 
z
M 1172 3481 
Q 1172 3119 1398 2916 
Q 1625 2713 2034 2713 
Q 2441 2713 2670 2916 
Q 2900 3119 2900 3481 
Q 2900 3844 2670 4047 
Q 2441 4250 2034 4250 
Q 1625 4250 1398 4047 
Q 1172 3844 1172 3481 
z
" transform="scale(0.015625)"/>
        <path id="DejaVuSans-32" d="M 1228 531 
L 3431 531 
L 3431 0 
L 469 0 
L 469 531 
Q 828 903 1448 1529 
Q 2069 2156 2228 2338 
Q 2531 2678 2651 2914 
Q 2772 3150 2772 3378 
Q 2772 3750 2511 3984 
Q 2250 4219 1831 4219 
Q 1534 4219 1204 4116 
Q 875 4013 500 3803 
L 500 4441 
Q 881 4594 1212 4672 
Q 1544 4750 1819 4750 
Q 2544 4750 2975 4387 
Q 3406 4025 3406 3419 
Q 3406 3131 3298 2873 
Q 3191 2616 2906 2266 
Q 2828 2175 2409 1742 
Q 1991 1309 1228 531 
z
" transform="scale(0.015625)"/>
       </defs>
       <use xlink:href="#DejaVuSans-57"/>
       <use xlink:href="#DejaVuSans-42" x="98.876953"/>
       <use xlink:href="#DejaVuSans-54" x="167.480469"/>
       <use xlink:href="#DejaVuSans-31" x="228.564453"/>
       <use xlink:href="#DejaVuSans-38" x="292.1875"/>
       <use xlink:href="#DejaVuSans-32" x="355.810547"/>
      </g>
     </g>
    </g>
    <g id="xtick_3">
     <g id="line2d_3">
      <g>
       <use xlink:href="#m31243a07c9" x="542.714375" y="466.31625" style="stroke: #000000"/>
      </g>
     </g>
     <g id="text_3">
      <!-- WBT190 -->
      <g transform="translate(496.57625 491.332812)scale(0.22 -0.22)">
       <defs>
        <path id="DejaVuSans-39" d="M 703 97 
L 703 672 
Q 941 559 1184 500 
Q 1428 441 1663 441 
Q 2288 441 2617 861 
Q 2947 1281 2994 2138 
Q 2813 1869 2534 1725 
Q 2256 1581 1919 1581 
Q 1219 1581 811 2004 
Q 403 2428 403 3163 
Q 403 3881 828 4315 
Q 1253 4750 1959 4750 
Q 2769 4750 3195 4129 
Q 3622 3509 3622 2328 
Q 3622 1225 3098 567 
Q 2575 -91 1691 -91 
Q 1453 -91 1209 -44 
Q 966 3 703 97 
z
M 1959 2075 
Q 2384 2075 2632 2365 
Q 2881 2656 2881 3163 
Q 2881 3666 2632 3958 
Q 2384 4250 1959 4250 
Q 1534 4250 1286 3958 
Q 1038 3666 1038 3163 
Q 1038 2656 1286 2365 
Q 1534 2075 1959 2075 
z
" transform="scale(0.015625)"/>
       </defs>
       <use xlink:href="#DejaVuSans-57"/>
       <use xlink:href="#DejaVuSans-42" x="98.876953"/>
       <use xlink:href="#DejaVuSans-54" x="167.480469"/>
       <use xlink:href="#DejaVuSans-31" x="228.564453"/>
       <use xlink:href="#DejaVuSans-39" x="292.1875"/>
       <use xlink:href="#DejaVuSans-30" x="355.810547"/>
      </g>
     </g>
    </g>
    <g id="text_4">
     <!-- Strain -->
     <g transform="translate(321.16625 518.144375)scale(0.24 -0.24)">
      <defs>
       <path id="DejaVuSans-53" d="M 3425 4513 
L 3425 3897 
Q 3066 4069 2747 4153 
Q 2428 4238 2131 4238 
Q 1616 4238 1336 4038 
Q 1056 3838 1056 3469 
Q 1056 3159 1242 3001 
Q 1428 2844 1947 2747 
L 2328 2669 
Q 3034 2534 3370 2195 
Q 3706 1856 3706 1288 
Q 3706 609 3251 259 
Q 2797 -91 1919 -91 
Q 1588 -91 1214 -16 
Q 841 59 441 206 
L 441 856 
Q 825 641 1194 531 
Q 1563 422 1919 422 
Q 2459 422 2753 634 
Q 3047 847 3047 1241 
Q 3047 1584 2836 1778 
Q 2625 1972 2144 2069 
L 1759 2144 
Q 1053 2284 737 2584 
Q 422 2884 422 3419 
Q 422 4038 858 4394 
Q 1294 4750 2059 4750 
Q 2388 4750 2728 4690 
Q 3069 4631 3425 4513 
z
" transform="scale(0.015625)"/>
       <path id="DejaVuSans-74" d="M 1172 4494 
L 1172 3500 
L 2356 3500 
L 2356 3053 
L 1172 3053 
L 1172 1153 
Q 1172 725 1289 603 
Q 1406 481 1766 481 
L 2356 481 
L 2356 0 
L 1766 0 
Q 1100 0 847 248 
Q 594 497 594 1153 
L 594 3053 
L 172 3053 
L 172 3500 
L 594 3500 
L 594 4494 
L 1172 4494 
z
" transform="scale(0.015625)"/>
       <path id="DejaVuSans-72" d="M 2631 2963 
Q 2534 3019 2420 3045 
Q 2306 3072 2169 3072 
Q 1681 3072 1420 2755 
Q 1159 2438 1159 1844 
L 1159 0 
L 581 0 
L 581 3500 
L 1159 3500 
L 1159 2956 
Q 1341 3275 1631 3429 
Q 1922 3584 2338 3584 
Q 2397 3584 2469 3576 
Q 2541 3569 2628 3553 
L 2631 2963 
z
" transform="scale(0.015625)"/>
       <path id="DejaVuSans-61" d="M 2194 1759 
Q 1497 1759 1228 1600 
Q 959 1441 959 1056 
Q 959 750 1161 570 
Q 1363 391 1709 391 
Q 2188 391 2477 730 
Q 2766 1069 2766 1631 
L 2766 1759 
L 2194 1759 
z
M 3341 1997 
L 3341 0 
L 2766 0 
L 2766 531 
Q 2569 213 2275 61 
Q 1981 -91 1556 -91 
Q 1019 -91 701 211 
Q 384 513 384 1019 
Q 384 1609 779 1909 
Q 1175 2209 1959 2209 
L 2766 2209 
L 2766 2266 
Q 2766 2663 2505 2880 
Q 2244 3097 1772 3097 
Q 1472 3097 1187 3025 
Q 903 2953 641 2809 
L 641 3341 
Q 956 3463 1253 3523 
Q 1550 3584 1831 3584 
Q 2591 3584 2966 3190 
Q 3341 2797 3341 1997 
z
" transform="scale(0.015625)"/>
       <path id="DejaVuSans-69" d="M 603 3500 
L 1178 3500 
L 1178 0 
L 603 0 
L 603 3500 
z
M 603 4863 
L 1178 4863 
L 1178 4134 
L 603 4134 
L 603 4863 
z
" transform="scale(0.015625)"/>
       <path id="DejaVuSans-6e" d="M 3513 2113 
L 3513 0 
L 2938 0 
L 2938 2094 
Q 2938 2591 2744 2837 
Q 2550 3084 2163 3084 
Q 1697 3084 1428 2787 
Q 1159 2491 1159 1978 
L 1159 0 
L 581 0 
L 581 3500 
L 1159 3500 
L 1159 2956 
Q 1366 3272 1645 3428 
Q 1925 3584 2291 3584 
Q 2894 3584 3203 3211 
Q 3513 2838 3513 2113 
z
" transform="scale(0.015625)"/>
      </defs>
      <use xlink:href="#DejaVuSans-53"/>
      <use xlink:href="#DejaVuSans-74" x="63.476562"/>
      <use xlink:href="#DejaVuSans-72" x="102.685547"/>
      <use xlink:href="#DejaVuSans-61" x="143.798828"/>
      <use xlink:href="#DejaVuSans-69" x="205.078125"/>
      <use xlink:href="#DejaVuSans-6e" x="232.861328"/>
     </g>
    </g>
   </g>
   <g id="matplotlib.axis_2">
    <g id="ytick_1">
     <g id="line2d_4">
      <defs>
       <path id="mc31e91dceb" d="M 0 0 
L -4.8 0 
" style="stroke: #000000"/>
      </defs>
      <g>
       <use xlink:href="#mc31e91dceb" x="77.714375" y="466.31625" style="stroke: #000000"/>
      </g>
     </g>
     <g id="text_5">
      <!-- 0.5 -->
      <g transform="translate(34.4275 474.674531)scale(0.22 -0.22)">
       <defs>
        <path id="DejaVuSans-2e" d="M 684 794 
L 1344 794 
L 1344 0 
L 684 0 
L 684 794 
z
" transform="scale(0.015625)"/>
        <path id="DejaVuSans-35" d="M 691 4666 
L 3169 4666 
L 3169 4134 
L 1269 4134 
L 1269 2991 
Q 1406 3038 1543 3061 
Q 1681 3084 1819 3084 
Q 2600 3084 3056 2656 
Q 3513 2228 3513 1497 
Q 3513 744 3044 326 
Q 2575 -91 1722 -91 
Q 1428 -91 1123 -41 
Q 819 9 494 109 
L 494 744 
Q 775 591 1075 516 
Q 1375 441 1709 441 
Q 2250 441 2565 725 
Q 2881 1009 2881 1497 
Q 2881 1984 2565 2268 
Q 2250 2553 1709 2553 
Q 1456 2553 1204 2497 
Q 953 2441 691 2322 
L 691 4666 
z
" transform="scale(0.015625)"/>
       </defs>
       <use xlink:href="#DejaVuSans-30"/>
       <use xlink:href="#DejaVuSans-2e" x="63.623047"/>
       <use xlink:href="#DejaVuSans-35" x="95.410156"/>
      </g>
     </g>
    </g>
    <g id="ytick_2">
     <g id="line2d_5">
      <g>
       <use xlink:href="#mc31e91dceb" x="77.714375" y="416.049617" style="stroke: #000000"/>
      </g>
     </g>
     <g id="text_6">
      <!-- 1.0 -->
      <g transform="translate(34.4275 424.407898)scale(0.22 -0.22)">
       <use xlink:href="#DejaVuSans-31"/>
       <use xlink:href="#DejaVuSans-2e" x="63.623047"/>
       <use xlink:href="#DejaVuSans-30" x="95.410156"/>
      </g>
     </g>
    </g>
    <g id="ytick_3">
     <g id="line2d_6">
      <g>
       <use xlink:href="#mc31e91dceb" x="77.714375" y="365.782983" style="stroke: #000000"/>
      </g>
     </g>
     <g id="text_7">
      <!-- 1.5 -->
      <g transform="translate(34.4275 374.141264)scale(0.22 -0.22)">
       <use xlink:href="#DejaVuSans-31"/>
       <use xlink:href="#DejaVuSans-2e" x="63.623047"/>
       <use xlink:href="#DejaVuSans-35" x="95.410156"/>
      </g>
     </g>
    </g>
    <g id="ytick_4">
     <g id="line2d_7">
      <g>
       <use xlink:href="#mc31e91dceb" x="77.714375" y="315.51635" style="stroke: #000000"/>
      </g>
     </g>
     <g id="text_8">
      <!-- 2.0 -->
      <g transform="translate(34.4275 323.874631)scale(0.22 -0.22)">
       <use xlink:href="#DejaVuSans-32"/>
       <use xlink:href="#DejaVuSans-2e" x="63.623047"/>
       <use xlink:href="#DejaVuSans-30" x="95.410156"/>
      </g>
     </g>
    </g>
    <g id="ytick_5">
     <g id="line2d_8">
      <g>
       <use xlink:href="#mc31e91dceb" x="77.714375" y="265.249716" style="stroke: #000000"/>
      </g>
     </g>
     <g id="text_9">
      <!-- 2.5 -->
      <g transform="translate(34.4275 273.607998)scale(0.22 -0.22)">
       <use xlink:href="#DejaVuSans-32"/>
       <use xlink:href="#DejaVuSans-2e" x="63.623047"/>
       <use xlink:href="#DejaVuSans-35" x="95.410156"/>
      </g>
     </g>
    </g>
    <g id="ytick_6">
     <g id="line2d_9">
      <g>
       <use xlink:href="#mc31e91dceb" x="77.714375" y="214.983083" style="stroke: #000000"/>
      </g>
     </g>
     <g id="text_10">
      <!-- 3.0 -->
      <g transform="translate(34.4275 223.341364)scale(0.22 -0.22)">
       <defs>
        <path id="DejaVuSans-33" d="M 2597 2516 
Q 3050 2419 3304 2112 
Q 3559 1806 3559 1356 
Q 3559 666 3084 287 
Q 2609 -91 1734 -91 
Q 1441 -91 1130 -33 
Q 819 25 488 141 
L 488 750 
Q 750 597 1062 519 
Q 1375 441 1716 441 
Q 2309 441 2620 675 
Q 2931 909 2931 1356 
Q 2931 1769 2642 2001 
Q 2353 2234 1838 2234 
L 1294 2234 
L 1294 2753 
L 1863 2753 
Q 2328 2753 2575 2939 
Q 2822 3125 2822 3475 
Q 2822 3834 2567 4026 
Q 2313 4219 1838 4219 
Q 1578 4219 1281 4162 
Q 984 4106 628 3988 
L 628 4550 
Q 988 4650 1302 4700 
Q 1616 4750 1894 4750 
Q 2613 4750 3031 4423 
Q 3450 4097 3450 3541 
Q 3450 3153 3228 2886 
Q 3006 2619 2597 2516 
z
" transform="scale(0.015625)"/>
       </defs>
       <use xlink:href="#DejaVuSans-33"/>
       <use xlink:href="#DejaVuSans-2e" x="63.623047"/>
       <use xlink:href="#DejaVuSans-30" x="95.410156"/>
      </g>
     </g>
    </g>
    <g id="ytick_7">
     <g id="line2d_10">
      <g>
       <use xlink:href="#mc31e91dceb" x="77.714375" y="164.716449" style="stroke: #000000"/>
      </g>
     </g>
     <g id="text_11">
      <!-- 3.5 -->
      <g transform="translate(34.4275 173.074731)scale(0.22 -0.22)">
       <use xlink:href="#DejaVuSans-33"/>
       <use xlink:href="#DejaVuSans-2e" x="63.623047"/>
       <use xlink:href="#DejaVuSans-35" x="95.410156"/>
      </g>
     </g>
    </g>
    <g id="ytick_8">
     <g id="line2d_11">
      <g>
       <use xlink:href="#mc31e91dceb" x="77.714375" y="114.449816" style="stroke: #000000"/>
      </g>
     </g>
     <g id="text_12">
      <!-- 4.0 -->
      <g transform="translate(34.4275 122.808097)scale(0.22 -0.22)">
       <defs>
        <path id="DejaVuSans-34" d="M 2419 4116 
L 825 1625 
L 2419 1625 
L 2419 4116 
z
M 2253 4666 
L 3047 4666 
L 3047 1625 
L 3713 1625 
L 3713 1100 
L 3047 1100 
L 3047 0 
L 2419 0 
L 2419 1100 
L 313 1100 
L 313 1709 
L 2253 4666 
z
" transform="scale(0.015625)"/>
       </defs>
       <use xlink:href="#DejaVuSans-34"/>
       <use xlink:href="#DejaVuSans-2e" x="63.623047"/>
       <use xlink:href="#DejaVuSans-30" x="95.410156"/>
      </g>
     </g>
    </g>
    <g id="ytick_9">
     <g id="line2d_12">
      <g>
       <use xlink:href="#mc31e91dceb" x="77.714375" y="64.183183" style="stroke: #000000"/>
      </g>
     </g>
     <g id="text_13">
      <!-- 4.5 -->
      <g transform="translate(34.4275 72.541464)scale(0.22 -0.22)">
       <use xlink:href="#DejaVuSans-34"/>
       <use xlink:href="#DejaVuSans-2e" x="63.623047"/>
       <use xlink:href="#DejaVuSans-35" x="95.410156"/>
      </g>
     </g>
    </g>
    <g id="text_14">
     <!-- Pumping rate (Hz) -->
     <g transform="translate(25.43625 358.059375)rotate(-90)scale(0.24 -0.24)">
      <defs>
       <path id="DejaVuSans-50" d="M 1259 4147 
L 1259 2394 
L 2053 2394 
Q 2494 2394 2734 2622 
Q 2975 2850 2975 3272 
Q 2975 3691 2734 3919 
Q 2494 4147 2053 4147 
L 1259 4147 
z
M 628 4666 
L 2053 4666 
Q 2838 4666 3239 4311 
Q 3641 3956 3641 3272 
Q 3641 2581 3239 2228 
Q 2838 1875 2053 1875 
L 1259 1875 
L 1259 0 
L 628 0 
L 628 4666 
z
" transform="scale(0.015625)"/>
       <path id="DejaVuSans-75" d="M 544 1381 
L 544 3500 
L 1119 3500 
L 1119 1403 
Q 1119 906 1312 657 
Q 1506 409 1894 409 
Q 2359 409 2629 706 
Q 2900 1003 2900 1516 
L 2900 3500 
L 3475 3500 
L 3475 0 
L 2900 0 
L 2900 538 
Q 2691 219 2414 64 
Q 2138 -91 1772 -91 
Q 1169 -91 856 284 
Q 544 659 544 1381 
z
M 1991 3584 
L 1991 3584 
z
" transform="scale(0.015625)"/>
       <path id="DejaVuSans-6d" d="M 3328 2828 
Q 3544 3216 3844 3400 
Q 4144 3584 4550 3584 
Q 5097 3584 5394 3201 
Q 5691 2819 5691 2113 
L 5691 0 
L 5113 0 
L 5113 2094 
Q 5113 2597 4934 2840 
Q 4756 3084 4391 3084 
Q 3944 3084 3684 2787 
Q 3425 2491 3425 1978 
L 3425 0 
L 2847 0 
L 2847 2094 
Q 2847 2600 2669 2842 
Q 2491 3084 2119 3084 
Q 1678 3084 1418 2786 
Q 1159 2488 1159 1978 
L 1159 0 
L 581 0 
L 581 3500 
L 1159 3500 
L 1159 2956 
Q 1356 3278 1631 3431 
Q 1906 3584 2284 3584 
Q 2666 3584 2933 3390 
Q 3200 3197 3328 2828 
z
" transform="scale(0.015625)"/>
       <path id="DejaVuSans-70" d="M 1159 525 
L 1159 -1331 
L 581 -1331 
L 581 3500 
L 1159 3500 
L 1159 2969 
Q 1341 3281 1617 3432 
Q 1894 3584 2278 3584 
Q 2916 3584 3314 3078 
Q 3713 2572 3713 1747 
Q 3713 922 3314 415 
Q 2916 -91 2278 -91 
Q 1894 -91 1617 61 
Q 1341 213 1159 525 
z
M 3116 1747 
Q 3116 2381 2855 2742 
Q 2594 3103 2138 3103 
Q 1681 3103 1420 2742 
Q 1159 2381 1159 1747 
Q 1159 1113 1420 752 
Q 1681 391 2138 391 
Q 2594 391 2855 752 
Q 3116 1113 3116 1747 
z
" transform="scale(0.015625)"/>
       <path id="DejaVuSans-67" d="M 2906 1791 
Q 2906 2416 2648 2759 
Q 2391 3103 1925 3103 
Q 1463 3103 1205 2759 
Q 947 2416 947 1791 
Q 947 1169 1205 825 
Q 1463 481 1925 481 
Q 2391 481 2648 825 
Q 2906 1169 2906 1791 
z
M 3481 434 
Q 3481 -459 3084 -895 
Q 2688 -1331 1869 -1331 
Q 1566 -1331 1297 -1286 
Q 1028 -1241 775 -1147 
L 775 -588 
Q 1028 -725 1275 -790 
Q 1522 -856 1778 -856 
Q 2344 -856 2625 -561 
Q 2906 -266 2906 331 
L 2906 616 
Q 2728 306 2450 153 
Q 2172 0 1784 0 
Q 1141 0 747 490 
Q 353 981 353 1791 
Q 353 2603 747 3093 
Q 1141 3584 1784 3584 
Q 2172 3584 2450 3431 
Q 2728 3278 2906 2969 
L 2906 3500 
L 3481 3500 
L 3481 434 
z
" transform="scale(0.015625)"/>
       <path id="DejaVuSans-20" transform="scale(0.015625)"/>
       <path id="DejaVuSans-65" d="M 3597 1894 
L 3597 1613 
L 953 1613 
Q 991 1019 1311 708 
Q 1631 397 2203 397 
Q 2534 397 2845 478 
Q 3156 559 3463 722 
L 3463 178 
Q 3153 47 2828 -22 
Q 2503 -91 2169 -91 
Q 1331 -91 842 396 
Q 353 884 353 1716 
Q 353 2575 817 3079 
Q 1281 3584 2069 3584 
Q 2775 3584 3186 3129 
Q 3597 2675 3597 1894 
z
M 3022 2063 
Q 3016 2534 2758 2815 
Q 2500 3097 2075 3097 
Q 1594 3097 1305 2825 
Q 1016 2553 972 2059 
L 3022 2063 
z
" transform="scale(0.015625)"/>
       <path id="DejaVuSans-28" d="M 1984 4856 
Q 1566 4138 1362 3434 
Q 1159 2731 1159 2009 
Q 1159 1288 1364 580 
Q 1569 -128 1984 -844 
L 1484 -844 
Q 1016 -109 783 600 
Q 550 1309 550 2009 
Q 550 2706 781 3412 
Q 1013 4119 1484 4856 
L 1984 4856 
z
" transform="scale(0.015625)"/>
       <path id="DejaVuSans-48" d="M 628 4666 
L 1259 4666 
L 1259 2753 
L 3553 2753 
L 3553 4666 
L 4184 4666 
L 4184 0 
L 3553 0 
L 3553 2222 
L 1259 2222 
L 1259 0 
L 628 0 
L 628 4666 
z
" transform="scale(0.015625)"/>
       <path id="DejaVuSans-7a" d="M 353 3500 
L 3084 3500 
L 3084 2975 
L 922 459 
L 3084 459 
L 3084 0 
L 275 0 
L 275 525 
L 2438 3041 
L 353 3041 
L 353 3500 
z
" transform="scale(0.015625)"/>
       <path id="DejaVuSans-29" d="M 513 4856 
L 1013 4856 
Q 1481 4119 1714 3412 
Q 1947 2706 1947 2009 
Q 1947 1309 1714 600 
Q 1481 -109 1013 -844 
L 513 -844 
Q 928 -128 1133 580 
Q 1338 1288 1338 2009 
Q 1338 2731 1133 3434 
Q 928 4138 513 4856 
z
" transform="scale(0.015625)"/>
      </defs>
      <use xlink:href="#DejaVuSans-50"/>
      <use xlink:href="#DejaVuSans-75" x="58.552734"/>
      <use xlink:href="#DejaVuSans-6d" x="121.931641"/>
      <use xlink:href="#DejaVuSans-70" x="219.34375"/>
      <use xlink:href="#DejaVuSans-69" x="282.820312"/>
      <use xlink:href="#DejaVuSans-6e" x="310.603516"/>
      <use xlink:href="#DejaVuSans-67" x="373.982422"/>
      <use xlink:href="#DejaVuSans-20" x="437.458984"/>
      <use xlink:href="#DejaVuSans-72" x="469.246094"/>
      <use xlink:href="#DejaVuSans-61" x="510.359375"/>
      <use xlink:href="#DejaVuSans-74" x="571.638672"/>
      <use xlink:href="#DejaVuSans-65" x="610.847656"/>
      <use xlink:href="#DejaVuSans-20" x="672.371094"/>
      <use xlink:href="#DejaVuSans-28" x="704.158203"/>
      <use xlink:href="#DejaVuSans-48" x="743.171875"/>
      <use xlink:href="#DejaVuSans-7a" x="818.367188"/>
      <use xlink:href="#DejaVuSans-29" x="870.857422"/>
     </g>
    </g>
   </g>
   <g id="line2d_13">
    <path d="M 170.714375 298.677028 
L 170.714375 355.729656 
" clip-path="url(#p042f0ec189)" style="fill: none; stroke: #303030; stroke-width: 2.5; stroke-linecap: square"/>
   </g>
   <g id="line2d_14">
    <path d="M 170.714375 247.907728 
L 170.714375 191.525321 
" clip-path="url(#p042f0ec189)" style="fill: none; stroke: #303030; stroke-width: 2.5; stroke-linecap: square"/>
   </g>
   <g id="line2d_15">
    <path d="M 133.514375 355.729656 
L 207.914375 355.729656 
" clip-path="url(#p042f0ec189)" style="fill: none; stroke: #303030; stroke-width: 2.5; stroke-linecap: square"/>
   </g>
   <g id="line2d_16">
    <path d="M 133.514375 191.525321 
L 207.914375 191.525321 
" clip-path="url(#p042f0ec189)" style="fill: none; stroke: #303030; stroke-width: 2.5; stroke-linecap: square"/>
   </g>
   <g id="line2d_17"/>
   <g id="line2d_18">
    <path d="M 356.714375 347.686995 
L 356.714375 376.953346 
" clip-path="url(#p042f0ec189)" style="fill: none; stroke: #303030; stroke-width: 2.5; stroke-linecap: square"/>
   </g>
   <g id="line2d_19">
    <path d="M 356.714375 301.441692 
L 356.714375 237.100402 
" clip-path="url(#p042f0ec189)" style="fill: none; stroke: #303030; stroke-width: 2.5; stroke-linecap: square"/>
   </g>
   <g id="line2d_20">
    <path d="M 319.514375 376.953346 
L 393.914375 376.953346 
" clip-path="url(#p042f0ec189)" style="fill: none; stroke: #303030; stroke-width: 2.5; stroke-linecap: square"/>
   </g>
   <g id="line2d_21">
    <path d="M 319.514375 237.100402 
L 393.914375 237.100402 
" clip-path="url(#p042f0ec189)" style="fill: none; stroke: #303030; stroke-width: 2.5; stroke-linecap: square"/>
   </g>
   <g id="line2d_22"/>
   <g id="line2d_23">
    <path d="M 542.714375 379.337022 
L 542.714375 403.985625 
" clip-path="url(#p042f0ec189)" style="fill: none; stroke: #303030; stroke-width: 2.5; stroke-linecap: square"/>
   </g>
   <g id="line2d_24">
    <path d="M 542.714375 343.686609 
L 542.714375 340.091148 
" clip-path="url(#p042f0ec189)" style="fill: none; stroke: #303030; stroke-width: 2.5; stroke-linecap: square"/>
   </g>
   <g id="line2d_25">
    <path d="M 505.514375 403.985625 
L 579.914375 403.985625 
" clip-path="url(#p042f0ec189)" style="fill: none; stroke: #303030; stroke-width: 2.5; stroke-linecap: square"/>
   </g>
   <g id="line2d_26">
    <path d="M 505.514375 340.091148 
L 579.914375 340.091148 
" clip-path="url(#p042f0ec189)" style="fill: none; stroke: #303030; stroke-width: 2.5; stroke-linecap: square"/>
   </g>
   <g id="line2d_27">
    <defs>
     <path id="m24af8851ea" d="M 0 3.535534 
L 2.12132 0 
L 0 -3.535534 
L -2.12132 0 
z
" style="stroke: #303030; stroke-linejoin: miter"/>
    </defs>
    <g clip-path="url(#p042f0ec189)">
     <use xlink:href="#m24af8851ea" x="542.714375" y="287.869701" style="fill: #303030; stroke: #303030; stroke-linejoin: miter"/>
    </g>
   </g>
   <g id="line2d_28">
    <path d="M 170.714375 170.413335 
L 170.714375 163.376006 
L 356.714375 163.376006 
L 356.714375 170.413335 
" clip-path="url(#p042f0ec189)" style="fill: none; stroke: #333333; stroke-width: 1.5; stroke-linecap: square"/>
   </g>
   <g id="line2d_29">
    <path d="M 356.714375 122.920428 
L 356.714375 115.883099 
L 542.714375 115.883099 
L 542.714375 122.920428 
" clip-path="url(#p042f0ec189)" style="fill: none; stroke: #333333; stroke-width: 1.5; stroke-linecap: square"/>
   </g>
   <g id="line2d_30">
    <path d="M 170.714375 75.427521 
L 170.714375 68.390193 
L 542.714375 68.390193 
L 542.714375 75.427521 
" clip-path="url(#p042f0ec189)" style="fill: none; stroke: #333333; stroke-width: 1.5; stroke-linecap: square"/>
   </g>
   <g id="line2d_31">
    <path d="M 96.314375 272.789711 
L 245.114375 272.789711 
" clip-path="url(#p042f0ec189)" style="fill: none; stroke: #ff0000; stroke-opacity: 0.7; stroke-width: 2.5; stroke-linecap: square"/>
   </g>
   <g id="line2d_32">
    <path d="M 282.314375 327.245231 
L 431.114375 327.245231 
" clip-path="url(#p042f0ec189)" style="fill: none; stroke: #ff0000; stroke-opacity: 0.7; stroke-width: 2.5; stroke-linecap: square"/>
   </g>
   <g id="line2d_33">
    <path d="M 468.314375 360.846082 
L 617.114375 360.846082 
" clip-path="url(#p042f0ec189)" style="fill: none; stroke: #ff0000; stroke-opacity: 0.7; stroke-width: 2.5; stroke-linecap: square"/>
   </g>
   <g id="patch_6">
    <path d="M 77.714375 466.31625 
L 77.714375 31.43625 
" style="fill: none; stroke: #000000; stroke-linejoin: miter; stroke-linecap: square"/>
   </g>
   <g id="patch_7">
    <path d="M 635.714375 466.31625 
L 635.714375 31.43625 
" style="fill: none; stroke: #000000; stroke-linejoin: miter; stroke-linecap: square"/>
   </g>
   <g id="patch_8">
    <path d="M 77.714375 466.31625 
L 635.714375 466.31625 
" style="fill: none; stroke: #000000; stroke-linejoin: miter; stroke-linecap: square"/>
   </g>
   <g id="patch_9">
    <path d="M 77.714375 31.43625 
L 635.714375 31.43625 
" style="fill: none; stroke: #000000; stroke-linejoin: miter; stroke-linecap: square"/>
   </g>
   <g id="PathCollection_1">
    <defs>
     <path id="C0_0_782157fcee" d="M 0 2.5 
C 0.663008 2.5 1.29895 2.236584 1.767767 1.767767 
C 2.236584 1.29895 2.5 0.663008 2.5 -0 
C 2.5 -0.663008 2.236584 -1.29895 1.767767 -1.767767 
C 1.29895 -2.236584 0.663008 -2.5 0 -2.5 
C -0.663008 -2.5 -1.29895 -2.236584 -1.767767 -1.767767 
C -2.236584 -1.29895 -2.5 -0.663008 -2.5 0 
C -2.5 0.663008 -2.236584 1.29895 -1.767767 1.767767 
C -1.29895 2.236584 -0.663008 2.5 0 2.5 
z
"/>
    </defs>
    <g clip-path="url(#p042f0ec189)">
     <use xlink:href="#C0_0_782157fcee" x="170.714375" y="355.729656" style="fill: #00008b; fill-opacity: 0.5"/>
    </g>
    <g clip-path="url(#p042f0ec189)">
     <use xlink:href="#C0_0_782157fcee" x="170.714375" y="315.51635" style="fill: #00008b; fill-opacity: 0.5"/>
    </g>
    <g clip-path="url(#p042f0ec189)">
     <use xlink:href="#C0_0_782157fcee" x="165.464375" y="315.51635" style="fill: #00008b; fill-opacity: 0.5"/>
    </g>
    <g clip-path="url(#p042f0ec189)">
     <use xlink:href="#C0_0_782157fcee" x="170.714375" y="300.43636" style="fill: #00008b; fill-opacity: 0.5"/>
    </g>
    <g clip-path="url(#p042f0ec189)">
     <use xlink:href="#C0_0_782157fcee" x="165.845679" y="299.431027" style="fill: #00008b; fill-opacity: 0.5"/>
    </g>
    <g clip-path="url(#p042f0ec189)">
     <use xlink:href="#C0_0_782157fcee" x="172.571286" y="297.923028" style="fill: #00008b; fill-opacity: 0.5"/>
    </g>
    <g clip-path="url(#p042f0ec189)">
     <use xlink:href="#C0_0_782157fcee" x="170.714375" y="295.409696" style="fill: #00008b; fill-opacity: 0.5"/>
    </g>
    <g clip-path="url(#p042f0ec189)">
     <use xlink:href="#C0_0_782157fcee" x="170.714375" y="279.324374" style="fill: #00008b; fill-opacity: 0.5"/>
    </g>
    <g clip-path="url(#p042f0ec189)">
     <use xlink:href="#C0_0_782157fcee" x="170.714375" y="273.292378" style="fill: #00008b; fill-opacity: 0.5"/>
    </g>
    <g clip-path="url(#p042f0ec189)">
     <use xlink:href="#C0_0_782157fcee" x="165.557057" y="272.789711" style="fill: #00008b; fill-opacity: 0.5"/>
    </g>
    <g clip-path="url(#p042f0ec189)">
     <use xlink:href="#C0_0_782157fcee" x="170.714375" y="270.27638" style="fill: #00008b; fill-opacity: 0.5"/>
    </g>
    <g clip-path="url(#p042f0ec189)">
     <use xlink:href="#C0_0_782157fcee" x="170.714375" y="265.249716" style="fill: #00008b; fill-opacity: 0.5"/>
    </g>
    <g clip-path="url(#p042f0ec189)">
     <use xlink:href="#C0_0_782157fcee" x="170.714375" y="255.19639" style="fill: #00008b; fill-opacity: 0.5"/>
    </g>
    <g clip-path="url(#p042f0ec189)">
     <use xlink:href="#C0_0_782157fcee" x="168.857464" y="252.683058" style="fill: #00008b; fill-opacity: 0.5"/>
    </g>
    <g clip-path="url(#p042f0ec189)">
     <use xlink:href="#C0_0_782157fcee" x="170.714375" y="243.132398" style="fill: #00008b; fill-opacity: 0.5"/>
    </g>
    <g clip-path="url(#p042f0ec189)">
     <use xlink:href="#C0_0_782157fcee" x="170.714375" y="232.576405" style="fill: #00008b; fill-opacity: 0.5"/>
    </g>
    <g clip-path="url(#p042f0ec189)">
     <use xlink:href="#C0_0_782157fcee" x="165.464375" y="232.576405" style="fill: #00008b; fill-opacity: 0.5"/>
    </g>
    <g clip-path="url(#p042f0ec189)">
     <use xlink:href="#C0_0_782157fcee" x="170.714375" y="229.05774" style="fill: #00008b; fill-opacity: 0.5"/>
    </g>
    <g clip-path="url(#p042f0ec189)">
     <use xlink:href="#C0_0_782157fcee" x="170.714375" y="191.525321" style="fill: #00008b; fill-opacity: 0.5"/>
    </g>
   </g>
   <g id="PathCollection_2">
    <defs>
     <path id="C1_0_eed1370ea4" d="M 0 2.5 
C 0.663008 2.5 1.29895 2.236584 1.767767 1.767767 
C 2.236584 1.29895 2.5 0.663008 2.5 -0 
C 2.5 -0.663008 2.236584 -1.29895 1.767767 -1.767767 
C 1.29895 -2.236584 0.663008 -2.5 0 -2.5 
C -0.663008 -2.5 -1.29895 -2.236584 -1.767767 -1.767767 
C -2.236584 -1.29895 -2.5 -0.663008 -2.5 0 
C -2.5 0.663008 -2.236584 1.29895 -1.767767 1.767767 
C -1.29895 2.236584 -0.663008 2.5 0 2.5 
z
"/>
    </defs>
    <g clip-path="url(#p042f0ec189)">
     <use xlink:href="#C1_0_eed1370ea4" x="356.714375" y="376.953346" style="fill: #00008b; fill-opacity: 0.5"/>
    </g>
    <g clip-path="url(#p042f0ec189)">
     <use xlink:href="#C1_0_eed1370ea4" x="356.714375" y="371.814979" style="fill: #00008b; fill-opacity: 0.5"/>
    </g>
    <g clip-path="url(#p042f0ec189)">
     <use xlink:href="#C1_0_eed1370ea4" x="356.714375" y="360.75632" style="fill: #00008b; fill-opacity: 0.5"/>
    </g>
    <g clip-path="url(#p042f0ec189)">
     <use xlink:href="#C1_0_eed1370ea4" x="356.714375" y="357.405211" style="fill: #00008b; fill-opacity: 0.5"/>
    </g>
    <g clip-path="url(#p042f0ec189)">
     <use xlink:href="#C1_0_eed1370ea4" x="356.714375" y="347.686995" style="fill: #00008b; fill-opacity: 0.5"/>
    </g>
    <g clip-path="url(#p042f0ec189)">
     <use xlink:href="#C1_0_eed1370ea4" x="356.714375" y="342.325221" style="fill: #00008b; fill-opacity: 0.5"/>
    </g>
    <g clip-path="url(#p042f0ec189)">
     <use xlink:href="#C1_0_eed1370ea4" x="356.714375" y="330.59634" style="fill: #00008b; fill-opacity: 0.5"/>
    </g>
    <g clip-path="url(#p042f0ec189)">
     <use xlink:href="#C1_0_eed1370ea4" x="356.714375" y="327.245231" style="fill: #00008b; fill-opacity: 0.5"/>
    </g>
    <g clip-path="url(#p042f0ec189)">
     <use xlink:href="#C1_0_eed1370ea4" x="351.464375" y="327.245231" style="fill: #00008b; fill-opacity: 0.5"/>
    </g>
    <g clip-path="url(#p042f0ec189)">
     <use xlink:href="#C1_0_eed1370ea4" x="360.818641" y="325.569676" style="fill: #00008b; fill-opacity: 0.5"/>
    </g>
    <g clip-path="url(#p042f0ec189)">
     <use xlink:href="#C1_0_eed1370ea4" x="356.714375" y="322.697297" style="fill: #00008b; fill-opacity: 0.5"/>
    </g>
    <g clip-path="url(#p042f0ec189)">
     <use xlink:href="#C1_0_eed1370ea4" x="356.714375" y="309.771592" style="fill: #00008b; fill-opacity: 0.5"/>
    </g>
    <g clip-path="url(#p042f0ec189)">
     <use xlink:href="#C1_0_eed1370ea4" x="356.714375" y="301.441692" style="fill: #00008b; fill-opacity: 0.5"/>
    </g>
    <g clip-path="url(#p042f0ec189)">
     <use xlink:href="#C1_0_eed1370ea4" x="356.714375" y="287.031924" style="fill: #00008b; fill-opacity: 0.5"/>
    </g>
    <g clip-path="url(#p042f0ec189)">
     <use xlink:href="#C1_0_eed1370ea4" x="356.714375" y="261.228386" style="fill: #00008b; fill-opacity: 0.5"/>
    </g>
    <g clip-path="url(#p042f0ec189)">
     <use xlink:href="#C1_0_eed1370ea4" x="356.714375" y="255.19639" style="fill: #00008b; fill-opacity: 0.5"/>
    </g>
    <g clip-path="url(#p042f0ec189)">
     <use xlink:href="#C1_0_eed1370ea4" x="356.714375" y="237.100402" style="fill: #00008b; fill-opacity: 0.5"/>
    </g>
   </g>
   <g id="PathCollection_3">
    <defs>
     <path id="C2_0_bf21b9b6e0" d="M 0 2.5 
C 0.663008 2.5 1.29895 2.236584 1.767767 1.767767 
C 2.236584 1.29895 2.5 0.663008 2.5 -0 
C 2.5 -0.663008 2.236584 -1.29895 1.767767 -1.767767 
C 1.29895 -2.236584 0.663008 -2.5 0 -2.5 
C -0.663008 -2.5 -1.29895 -2.236584 -1.767767 -1.767767 
C -2.236584 -1.29895 -2.5 -0.663008 -2.5 0 
C -2.5 0.663008 -2.236584 1.29895 -1.767767 1.767767 
C -1.29895 2.236584 -0.663008 2.5 0 2.5 
z
"/>
    </defs>
    <g clip-path="url(#p042f0ec189)">
     <use xlink:href="#C2_0_bf21b9b6e0" x="542.714375" y="403.985625" style="fill: #00008b; fill-opacity: 0.5"/>
    </g>
    <g clip-path="url(#p042f0ec189)">
     <use xlink:href="#C2_0_bf21b9b6e0" x="542.714375" y="383.376305" style="fill: #00008b; fill-opacity: 0.5"/>
    </g>
    <g clip-path="url(#p042f0ec189)">
     <use xlink:href="#C2_0_bf21b9b6e0" x="542.714375" y="367.219173" style="fill: #00008b; fill-opacity: 0.5"/>
    </g>
    <g clip-path="url(#p042f0ec189)">
     <use xlink:href="#C2_0_bf21b9b6e0" x="542.714375" y="354.472991" style="fill: #00008b; fill-opacity: 0.5"/>
    </g>
    <g clip-path="url(#p042f0ec189)">
     <use xlink:href="#C2_0_bf21b9b6e0" x="542.714375" y="340.091148" style="fill: #00008b; fill-opacity: 0.5"/>
    </g>
    <g clip-path="url(#p042f0ec189)">
     <use xlink:href="#C2_0_bf21b9b6e0" x="542.714375" y="287.869701" style="fill: #00008b; fill-opacity: 0.5"/>
    </g>
   </g>
   <g id="text_15">
    <!-- ** -->
    <g transform="translate(251.714375 157.384756)scale(0.24 -0.24)">
     <defs>
      <path id="DejaVuSans-2a" d="M 3009 3897 
L 1888 3291 
L 3009 2681 
L 2828 2375 
L 1778 3009 
L 1778 1831 
L 1422 1831 
L 1422 3009 
L 372 2375 
L 191 2681 
L 1313 3291 
L 191 3897 
L 372 4206 
L 1422 3572 
L 1422 4750 
L 1778 4750 
L 1778 3572 
L 2828 4206 
L 3009 3897 
z
" transform="scale(0.015625)"/>
     </defs>
     <use xlink:href="#DejaVuSans-2a"/>
     <use xlink:href="#DejaVuSans-2a" x="50"/>
    </g>
   </g>
   <g id="text_16">
    <!-- ns -->
    <g transform="translate(435.858125 109.891849)scale(0.24 -0.24)">
     <defs>
      <path id="DejaVuSans-73" d="M 2834 3397 
L 2834 2853 
Q 2591 2978 2328 3040 
Q 2066 3103 1784 3103 
Q 1356 3103 1142 2972 
Q 928 2841 928 2578 
Q 928 2378 1081 2264 
Q 1234 2150 1697 2047 
L 1894 2003 
Q 2506 1872 2764 1633 
Q 3022 1394 3022 966 
Q 3022 478 2636 193 
Q 2250 -91 1575 -91 
Q 1294 -91 989 -36 
Q 684 19 347 128 
L 347 722 
Q 666 556 975 473 
Q 1284 391 1588 391 
Q 1994 391 2212 530 
Q 2431 669 2431 922 
Q 2431 1156 2273 1281 
Q 2116 1406 1581 1522 
L 1381 1569 
Q 847 1681 609 1914 
Q 372 2147 372 2553 
Q 372 3047 722 3315 
Q 1072 3584 1716 3584 
Q 2034 3584 2315 3537 
Q 2597 3491 2834 3397 
z
" transform="scale(0.015625)"/>
     </defs>
     <use xlink:href="#DejaVuSans-6e"/>
     <use xlink:href="#DejaVuSans-73" x="63.378906"/>
    </g>
   </g>
   <g id="text_17">
    <!-- ** -->
    <g transform="translate(344.714375 62.398943)scale(0.24 -0.24)">
     <use xlink:href="#DejaVuSans-2a"/>
     <use xlink:href="#DejaVuSans-2a" x="50"/>
    </g>
   </g>
   <g id="text_18">
    <!-- Mean L3 pumping rate -->
    <g transform="translate(220.79375 25.43625)scale(0.24 -0.24)">
     <defs>
      <path id="DejaVuSans-4d" d="M 628 4666 
L 1569 4666 
L 2759 1491 
L 3956 4666 
L 4897 4666 
L 4897 0 
L 4281 0 
L 4281 4097 
L 3078 897 
L 2444 897 
L 1241 4097 
L 1241 0 
L 628 0 
L 628 4666 
z
" transform="scale(0.015625)"/>
      <path id="DejaVuSans-4c" d="M 628 4666 
L 1259 4666 
L 1259 531 
L 3531 531 
L 3531 0 
L 628 0 
L 628 4666 
z
" transform="scale(0.015625)"/>
     </defs>
     <use xlink:href="#DejaVuSans-4d"/>
     <use xlink:href="#DejaVuSans-65" x="86.279297"/>
     <use xlink:href="#DejaVuSans-61" x="147.802734"/>
     <use xlink:href="#DejaVuSans-6e" x="209.082031"/>
     <use xlink:href="#DejaVuSans-20" x="272.460938"/>
     <use xlink:href="#DejaVuSans-4c" x="304.248047"/>
     <use xlink:href="#DejaVuSans-33" x="359.960938"/>
     <use xlink:href="#DejaVuSans-20" x="423.583984"/>
     <use xlink:href="#DejaVuSans-70" x="455.371094"/>
     <use xlink:href="#DejaVuSans-75" x="518.847656"/>
     <use xlink:href="#DejaVuSans-6d" x="582.226562"/>
     <use xlink:href="#DejaVuSans-70" x="679.638672"/>
     <use xlink:href="#DejaVuSans-69" x="743.115234"/>
     <use xlink:href="#DejaVuSans-6e" x="770.898438"/>
     <use xlink:href="#DejaVuSans-67" x="834.277344"/>
     <use xlink:href="#DejaVuSans-20" x="897.753906"/>
     <use xlink:href="#DejaVuSans-72" x="929.541016"/>
     <use xlink:href="#DejaVuSans-61" x="970.654297"/>
     <use xlink:href="#DejaVuSans-74" x="1031.933594"/>
     <use xlink:href="#DejaVuSans-65" x="1071.142578"/>
    </g>
   </g>
  </g>
 </g>
 <defs>
  <clipPath id="p042f0ec189">
   <rect x="77.714375" y="31.43625" width="558" height="434.88"/>
  </clipPath>
 </defs>
</svg>
